<svg width="48" height="48" viewBox="0 0 48 48" fill="none" xmlns="http://www.w3.org/2000/svg" xmlns:xlink="http://www.w3.org/1999/xlink">
<line x1="10" y1="22" x2="38" y2="22" stroke="#FFFFFF" stroke-width="2" stroke-miterlimit="3.999327" stroke-linecap="round" stroke-linejoin="round"/>
<path d="M25.414,8.586C24.633,7.805 23.367,7.805 22.586,8.586C21.805,9.367 21.805,10.633 22.586,11.414L25.414,8.586ZM38,24L39.414,25.414C40.195,24.633 40.195,23.367 39.414,22.586L38,24ZM22.586,36.586C21.805,37.367 21.805,38.633 22.586,39.414C23.367,40.195 24.633,40.195 25.414,39.414L22.586,36.586ZM22.586,11.414L36.586,25.414L39.414,22.586L25.414,8.586L22.586,11.414ZM36.586,22.586L22.586,36.586L25.414,39.414L39.414,25.414L36.586,22.586Z" fill="#FFFFFF"/>
</svg>
