<svg width="214" height="58" viewBox="0 0 214 58" fill="none" xmlns="http://www.w3.org/2000/svg" xmlns:xlink="http://www.w3.org/1999/xlink">
<path d="M2.984,30.131C0.848,30.692 -0.43,32.879 0.131,35.016C0.692,37.152 2.879,38.43 5.016,37.869L2.984,30.131ZM212.18,37.353C214.032,36.149 214.558,33.672 213.354,31.82L193.729,1.638C192.525,-0.214 190.048,-0.739 188.195,0.466C186.343,1.67 185.818,4.147 187.022,5.999L204.466,32.827L177.639,50.271C175.786,51.475 175.261,53.952 176.465,55.805C177.67,57.657 180.147,58.182 181.999,56.978L212.18,37.353ZM5.016,37.869C39.607,28.788 68.284,24.098 99.409,24.001C130.57,23.905 164.356,28.414 209.17,37.913L210.83,30.087C165.751,20.532 131.346,15.903 99.384,16.002C67.386,16.1 38.009,20.937 2.984,30.131L5.016,37.869Z" transform="rotate(180 107 27)" fill="#000000"/>
</svg>
