<svg width="128" height="128" viewBox="0 0 128 128" fill="none" xmlns="http://www.w3.org/2000/svg" xmlns:xlink="http://www.w3.org/1999/xlink">
<path d="M15.862,99.572C14.962,100.213 14.753,101.461 15.393,102.361C16.034,103.261 17.283,103.471 18.183,102.83L15.862,99.572ZM46.643,103.568C47.464,104.307 48.729,104.24 49.468,103.419C50.207,102.598 50.14,101.334 49.319,100.595L46.643,103.568ZM18.183,102.83C26.423,96.96 39.169,96.839 46.643,103.568L49.319,100.595C40.24,92.422 25.384,92.789 15.862,99.572L18.183,102.83Z" transform="rotate(-281.886 32.502 99.277)" fill="#000000"/>
<path d="M84.546,26.964C83.646,27.605 83.436,28.854 84.077,29.753C84.718,30.653 85.967,30.863 86.867,30.222L84.546,26.964ZM115.327,30.96C116.148,31.699 117.412,31.632 118.151,30.812C118.89,29.991 118.824,28.726 118.003,27.987L115.327,30.96ZM86.867,30.222C95.107,24.353 107.853,24.231 115.327,30.96L118.003,27.987C108.924,19.814 94.068,20.181 84.546,26.964L86.867,30.222Z" transform="rotate(86.742 101.186 26.669)" fill="#000000"/>
</svg>
